<?xml version="1.0" standalone="no"?>
<!DOCTYPE svg PUBLIC "-//W3C//DTD SVG 20010904//EN"
 "http://www.w3.org/TR/2001/REC-SVG-20010904/DTD/svg10.dtd">
<svg version="1.0" xmlns="http://www.w3.org/2000/svg"
 width="512.000000pt" height="512.000000pt" viewBox="0 0 512.000000 512.000000"
 preserveAspectRatio="xMidYMid meet">

<g transform="translate(0.000000,512.000000) scale(0.100000,-0.100000)"
fill="#000000" stroke="none">
<path d="M2095 4946 c-37 -17 -70 -52 -84 -89 -6 -16 -11 -88 -11 -160 l0
-132 -115 -39 c-64 -21 -167 -64 -230 -96 l-114 -56 -88 89 c-48 48 -101 95
-117 104 -35 18 -114 20 -147 3 -33 -17 -605 -587 -631 -628 -27 -44 -27 -120
0 -164 12 -18 59 -70 105 -116 l83 -83 -56 -114 c-32 -63 -74 -166 -96 -229
l-38 -115 -148 -3 c-160 -3 -175 -8 -222 -72 -21 -27 -21 -38 -21 -485 l0
-458 29 -37 c43 -57 75 -66 228 -66 l133 0 39 -115 c21 -64 64 -167 96 -230
l56 -114 -83 -83 c-46 -46 -93 -98 -105 -116 -27 -44 -27 -120 0 -164 26 -41
598 -611 631 -628 38 -19 115 -15 153 8 18 12 70 59 116 105 l83 83 114 -56
c63 -32 166 -74 229 -96 l115 -38 3 -147 c3 -143 4 -146 32 -183 51 -68 46
-67 541 -64 430 3 444 4 471 24 64 47 69 62 72 222 l3 148 115 38 c63 22 166
64 229 96 l114 56 83 -83 c46 -46 98 -93 116 -105 38 -23 115 -27 153 -8 33
17 605 587 631 628 27 44 27 120 0 164 -12 18 -59 70 -105 116 l-83 83 56 114
c32 63 74 166 96 229 l38 115 148 3 c160 3 175 8 222 72 20 27 21 41 24 471 3
495 4 490 -64 541 -37 28 -40 29 -183 32 l-147 3 -38 115 c-22 63 -64 166 -96
229 l-56 114 83 83 c46 46 93 98 105 116 23 38 27 115 8 153 -18 34 -599 617
-634 636 -42 22 -118 20 -158 -5 -18 -12 -70 -59 -116 -105 l-83 -83 -114 56
c-63 32 -166 75 -230 96 l-115 39 0 133 c0 153 -9 185 -66 228 l-37 29 -446 2
c-357 2 -452 0 -476 -11z m768 -816 c314 -61 597 -212 823 -438 236 -236 385
-518 451 -857 27 -138 24 -435 -6 -575 -70 -331 -212 -598 -440 -828 -184
-184 -390 -310 -641 -392 -186 -61 -277 -74 -495 -74 -213 1 -314 16 -500 79
-549 182 -952 643 -1067 1218 -32 161 -32 433 0 594 37 184 107 370 197 519
260 430 693 711 1191 774 113 14 365 4 487 -20z"/>
<path d="M2420 3834 c-298 -38 -550 -162 -761 -373 -186 -185 -300 -394 -355
-651 -26 -119 -26 -381 0 -500 55 -257 169 -466 355 -651 185 -186 394 -300
651 -355 119 -26 381 -26 500 0 259 56 462 167 651 355 186 185 300 394 355
651 26 119 26 381 0 500 -55 257 -169 466 -355 651 -185 185 -380 293 -631
350 -83 19 -331 33 -410 23z m338 -618 c43 -22 70 -57 82 -106 11 -43 6 -71
-119 -570 -72 -289 -140 -544 -152 -568 -12 -23 -37 -51 -55 -63 -46 -28 -122
-28 -168 0 -36 23 -76 91 -76 129 0 47 271 1106 290 1132 39 55 138 77 198 46z
m-709 -191 c41 -21 79 -70 87 -111 13 -71 -9 -110 -134 -237 l-116 -117 121
-123 c130 -131 143 -155 128 -234 -9 -49 -69 -109 -118 -118 -85 -16 -97 -8
-309 203 -167 168 -198 203 -203 235 -16 85 -7 98 188 296 100 101 196 192
212 202 36 23 105 25 144 4z m1156 -5 c25 -12 110 -90 217 -197 264 -267 264
-259 -5 -532 -100 -101 -196 -189 -214 -197 -75 -32 -174 1 -207 70 -18 39
-21 107 -5 139 6 12 63 75 127 140 l117 117 -117 118 c-64 64 -121 127 -127
139 -15 30 -14 99 3 131 43 83 128 112 211 72z"/>
</g>
</svg>
