<?xml version="1.0" standalone="no"?>
<!DOCTYPE svg PUBLIC "-//W3C//DTD SVG 20010904//EN"
 "http://www.w3.org/TR/2001/REC-SVG-20010904/DTD/svg10.dtd">
<svg version="1.0" xmlns="http://www.w3.org/2000/svg"
 width="512.000000pt" height="512.000000pt" viewBox="0 0 512.000000 512.000000"
 preserveAspectRatio="xMidYMid meet">

<g transform="translate(0.000000,512.000000) scale(0.100000,-0.100000)"
fill="#000000" stroke="none">
<path d="M345 4496 c-84 -21 -147 -57 -211 -121 -65 -65 -105 -136 -123 -223
-16 -76 -16 -3109 0 -3184 37 -172 175 -310 347 -347 75 -16 4328 -16 4404 0
170 36 311 178 347 347 16 76 16 3110 0 3184 -37 172 -176 311 -347 347 -81
17 -4349 14 -4417 -3z m1865 -611 c168 -34 349 -110 500 -210 96 -64 291 -259
355 -355 102 -154 173 -325 212 -510 24 -118 24 -382 0 -500 -87 -415 -346
-759 -712 -947 -215 -109 -374 -148 -615 -148 -239 0 -405 40 -614 147 -369
190 -626 532 -713 948 -24 118 -24 382 0 500 59 281 173 495 372 696 224 227
493 358 815 398 67 8 326 -4 400 -19z m2230 -295 c45 -23 80 -80 80 -130 0
-50 -35 -107 -80 -130 -37 -19 -58 -20 -381 -20 -335 0 -342 0 -381 22 -101
57 -102 194 -2 254 39 24 39 24 382 24 324 0 345 -1 382 -20z m0 -600 c45 -23
80 -80 80 -130 0 -50 -35 -107 -80 -130 -37 -19 -58 -20 -381 -20 -335 0 -342
0 -381 22 -101 57 -102 194 -2 254 39 24 39 24 382 24 324 0 345 -1 382 -20z
m0 -600 c45 -23 80 -80 80 -130 0 -50 -35 -107 -80 -130 -37 -19 -58 -20 -381
-20 -335 0 -342 0 -381 22 -101 57 -102 194 -2 254 39 24 39 24 382 24 324 0
345 -1 382 -20z m0 -600 c45 -23 80 -80 80 -130 0 -50 -35 -107 -80 -130 -37
-19 -58 -20 -381 -20 -335 0 -342 0 -381 22 -101 57 -102 194 -2 254 39 24 39
24 382 24 324 0 345 -1 382 -20z"/>
<path d="M1795 3600 c-214 -33 -430 -144 -586 -299 -277 -278 -378 -687 -258
-1055 29 -90 117 -267 135 -273 5 -2 35 28 67 66 65 79 175 171 277 232 45 26
67 45 62 53 -4 6 -24 37 -45 67 -154 227 -120 539 82 739 87 87 164 131 277
160 141 36 294 18 427 -52 90 -47 204 -164 250 -255 96 -194 84 -423 -30 -592
-21 -30 -41 -61 -45 -67 -5 -7 24 -30 77 -63 108 -66 198 -142 265 -226 30
-36 58 -64 64 -62 19 6 106 183 135 272 119 373 19 779 -262 1059 -136 136
-297 227 -487 275 -97 25 -307 36 -405 21z"/>
<path d="M1853 2992 c-251 -90 -272 -432 -35 -549 81 -40 183 -40 264 0 107
53 163 144 163 267 0 85 -21 142 -74 203 -72 81 -213 117 -318 79z"/>
<path d="M1845 2104 c-164 -27 -305 -97 -419 -209 -54 -54 -116 -135 -116
-154 0 -15 130 -97 216 -137 42 -20 120 -47 173 -62 84 -22 116 -25 251 -25
135 0 167 3 251 25 53 15 131 42 173 62 86 40 216 122 216 137 0 18 -61 99
-114 152 -90 90 -207 158 -332 192 -60 16 -244 27 -299 19z"/>
</g>
</svg>
